<?xml version="1.0" encoding="UTF-8" standalone="no"?>
<svg
   xmlns:dc="http://purl.org/dc/elements/1.1/"
   xmlns:cc="http://creativecommons.org/ns#"
   xmlns:rdf="http://www.w3.org/1999/02/22-rdf-syntax-ns#"
   xmlns:svg="http://www.w3.org/2000/svg"
   xmlns="http://www.w3.org/2000/svg"
   xmlns:xlink="http://www.w3.org/1999/xlink"
   xmlns:sodipodi="http://sodipodi.sourceforge.net/DTD/sodipodi-0.dtd"
   xmlns:inkscape="http://www.inkscape.org/namespaces/inkscape"
   width="1366.033"
   height="768.00592"
   version="1.1"
   viewBox="0 0 361.41872 203.19901"
   id="svg851"
   sodipodi:docname="quizzlerBackground.svg"
   inkscape:version="1.0 (4035a4f, 2020-05-01)">
  <sodipodi:namedview
     inkscape:document-rotation="0"
     pagecolor="#ffffff"
     bordercolor="#666666"
     borderopacity="1"
     objecttolerance="10"
     gridtolerance="10"
     guidetolerance="10"
     inkscape:pageopacity="0"
     inkscape:pageshadow="2"
     inkscape:window-width="1366"
     inkscape:window-height="652"
     id="namedview853"
     showgrid="false"
     showborder="false"
     inkscape:zoom="0.4669425"
     inkscape:cx="550.37676"
     inkscape:cy="445.25396"
     inkscape:window-x="0"
     inkscape:window-y="23"
     inkscape:window-maximized="1"
     inkscape:current-layer="svg851" />
  <defs
     id="defs843">
    <linearGradient
       id="linearGradient944"
       x1="307.17999"
       x2="307.17999"
       y1="147.39"
       y2="147.39"
       gradientUnits="userSpaceOnUse"
       gradientTransform="translate(-61.23614,12.609)">
      <stop
         stop-color="#0c9797"
         offset="0"
         id="stop833" />
      <stop
         stop-color="#0c9797"
         stop-opacity="0"
         offset="1"
         id="stop835" />
    </linearGradient>
    <linearGradient
       id="linearGradient954"
       x1="61.233002"
       x2="422.66"
       y1="88.992996"
       y2="88.992996"
       gradientUnits="userSpaceOnUse"
       gradientTransform="matrix(0.99997593,0,0,0.781244,-61.234664,9.8507057)">
      <stop
         stop-color="#441ab9"
         offset="0"
         id="stop838" />
      <stop
         stop-color="#781371"
         offset="1"
         id="stop840" />
    </linearGradient>
    <linearGradient
       gradientUnits="userSpaceOnUse"
       y2="208.64"
       y1="210.11948"
       x2="47.504"
       x1="-53.799515"
       id="linearGradient2357">
      <stop
         stop-color="#ef6f6c"
         offset="0"
         id="stop835-3"
         style="stop-color:#441ab9;stop-opacity:1" />
      <stop
         style="stop-color:#781371;stop-opacity:1"
         stop-color="#12dddd"
         offset="1"
         id="stop833-8" />
    </linearGradient>
    <filter
       color-interpolation-filters="sRGB"
       height="1.3211382"
       width="1.3471968"
       y="-0.16056911"
       x="-0.17359838"
       id="filter2387">
      <feGaussianBlur
         id="feGaussianBlur838"
         stdDeviation="7.528341" />
    </filter>
    <linearGradient
       inkscape:collect="always"
       xlink:href="#linearGradient2357"
       id="linearGradient1583"
       gradientUnits="userSpaceOnUse"
       x1="-53.799515"
       y1="210.11948"
       x2="47.504"
       y2="208.64" />
    <linearGradient
       y2="208.64"
       x2="47.504002"
       y1="210.11948"
       x1="-53.799515"
       gradientUnits="userSpaceOnUse"
       id="linearGradient1583-0"
       xlink:href="#linearGradient2357"
       inkscape:collect="always" />
    <filter
       id="filter2387-8"
       x="-0.17359838"
       y="-0.16056912"
       width="1.3471968"
       height="1.3211381"
       color-interpolation-filters="sRGB">
      <feGaussianBlur
         stdDeviation="7.528341"
         id="feGaussianBlur838-3" />
    </filter>
    <linearGradient
       y2="208.64"
       x2="47.504002"
       y1="210.11948"
       x1="-53.799515"
       gradientUnits="userSpaceOnUse"
       id="linearGradient1583-05"
       xlink:href="#linearGradient2357"
       inkscape:collect="always" />
    <filter
       id="filter2387-7"
       x="-0.17359838"
       y="-0.16056912"
       width="1.3471968"
       height="1.3211381"
       color-interpolation-filters="sRGB">
      <feGaussianBlur
         stdDeviation="7.528341"
         id="feGaussianBlur838-37" />
    </filter>
    <linearGradient
       y2="208.64"
       x2="47.504002"
       y1="210.11948"
       x1="-53.799515"
       gradientUnits="userSpaceOnUse"
       id="linearGradient1583-2"
       xlink:href="#linearGradient2357"
       inkscape:collect="always" />
    <filter
       id="filter2387-9"
       x="-0.17359838"
       y="-0.16056912"
       width="1.3471968"
       height="1.3211381"
       color-interpolation-filters="sRGB">
      <feGaussianBlur
         stdDeviation="7.528341"
         id="feGaussianBlur838-7" />
    </filter>
  </defs>
  <metadata
     id="metadata845">
    <rdf:RDF>
      <cc:Work
         rdf:about="">
        <dc:format>image/svg+xml</dc:format>
        <dc:type
           rdf:resource="http://purl.org/dc/dcmitype/StillImage" />
        <dc:title />
      </cc:Work>
    </rdf:RDF>
  </metadata>
  <path
     d="M 245.94386,159.999"
     fill="url(#linearGradient944)"
     stroke="#000000"
     stroke-width="0.26459px"
     id="path847"
     style="fill:url(#linearGradient944)" />
  <path
     d="m -0.00314,0 v 126.31153 c 0,0 91.318801,-8.27337 211.82489,32.43647 h 79.37409 c 0,0 31.63024,-31.71225 70.21731,-33.8849 V 38.684079 C 253.30575,33.614507 226.65639,0 226.65639,0 Z"
     fill="url(#linearGradient954)"
     opacity="0.79743"
     stroke-width="0.883871"
     id="path849"
     style="fill:url(#linearGradient954)" />
  <path
     style="opacity:0.22508;fill:url(#linearGradient1583);fill-opacity:1;filter:url(#filter2387)"
     transform="matrix(0.41824419,0,0,0.39564174,151.07943,-41.592559)"
     d="m -52.917,179.92 c 4.4934,-7.5678 40.267,-27.644 49.068,-27.536 8.801,0.108 44.074,21.051 48.381,28.726 4.3072,7.6753 3.8062,48.694 -0.68714,56.262 -4.4934,7.5678 -40.267,27.644 -49.068,27.536 -8.8006,-0.10748 -44.074,-21.051 -48.381,-28.726 -4.3072,-7.6753 -3.8062,-48.694 0.68714,-56.262 z"
     fill="url(#linearGradient2357)"
     filter="url(#filter2387)"
     opacity="0.79743"
     stroke-width="0.22331"
     id="path845" />
  <path
     id="path845-9"
     stroke-width="0.22331"
     opacity="0.79743"
     filter="url(#filter2387)"
     fill="url(#linearGradient2357)"
     d="m -52.917,179.92 c 4.4934,-7.5678 40.267,-27.644 49.068,-27.536 8.801,0.108 44.074,21.051 48.381,28.726 4.3072,7.6753 3.8062,48.694 -0.68714,56.262 -4.4934,7.5678 -40.267,27.644 -49.068,27.536 -8.8006,-0.10748 -44.074,-21.051 -48.381,-28.726 -4.3072,-7.6753 -3.8062,-48.694 0.68714,-56.262 z"
     transform="matrix(0.41824418,0,0,0.39564175,318.06925,-11.154665)"
     style="opacity:0.212219;fill:url(#linearGradient1583-0);fill-opacity:1;filter:url(#filter2387-8)" />
  <path
     id="path845-90"
     stroke-width="0.22331"
     opacity="0.79743"
     filter="url(#filter2387)"
     fill="url(#linearGradient2357)"
     d="m -52.917,179.92 c 4.4934,-7.5678 40.267,-27.644 49.068,-27.536 8.801,0.108 44.074,21.051 48.381,28.726 4.3072,7.6753 3.8062,48.694 -0.68714,56.262 -4.4934,7.5678 -40.267,27.644 -49.068,27.536 -8.8006,-0.10748 -44.074,-21.051 -48.381,-28.726 -4.3072,-7.6753 -3.8062,-48.694 0.68714,-56.262 z"
     transform="matrix(0.41824418,0,0,0.39564175,49.49031,5.27738)"
     style="opacity:0.247588;fill:url(#linearGradient1583-05);fill-opacity:1;filter:url(#filter2387-7)" />
  <path
     id="path845-0"
     stroke-width="0.22331"
     opacity="0.79743"
     filter="url(#filter2387)"
     fill="url(#linearGradient2357)"
     d="m -52.917,179.92 c 4.4934,-7.5678 40.267,-27.644 49.068,-27.536 8.801,0.108 44.074,21.051 48.381,28.726 4.3072,7.6753 3.8062,48.694 -0.68714,56.262 -4.4934,7.5678 -40.267,27.644 -49.068,27.536 -8.8006,-0.10748 -44.074,-21.051 -48.381,-28.726 -4.3072,-7.6753 -3.8062,-48.694 0.68714,-56.262 z"
     transform="matrix(0.41824418,0,0,0.39564175,216.64387,37.008225)"
     style="opacity:0.241158;fill:url(#linearGradient1583-2);fill-opacity:1;filter:url(#filter2387-9)" />
</svg>
