<?xml version="1.0" encoding="UTF-8" standalone="no"?>
<svg
   xmlns:dc="http://purl.org/dc/elements/1.1/"
   xmlns:cc="http://creativecommons.org/ns#"
   xmlns:rdf="http://www.w3.org/1999/02/22-rdf-syntax-ns#"
   xmlns:svg="http://www.w3.org/2000/svg"
   xmlns="http://www.w3.org/2000/svg"
   xmlns:sodipodi="http://sodipodi.sourceforge.net/DTD/sodipodi-0.dtd"
   xmlns:inkscape="http://www.inkscape.org/namespaces/inkscape"
   inkscape:version="1.0 (4035a4f, 2020-05-01)"
   sodipodi:docname="undraw_quiz_nlyh.svg"
   version="1.1"
   viewBox="0 0 1036.8986 660"
   height="660"
   width="1036.8986"
   data-name="Layer 1"
   id="fd86286a-adcb-4d81-b7ed-f4cd333bf213">
  <metadata
     id="metadata960">
    <rdf:RDF>
      <cc:Work
         rdf:about="">
        <dc:format>image/svg+xml</dc:format>
        <dc:type
           rdf:resource="http://purl.org/dc/dcmitype/StillImage" />
        <dc:title>quiz</dc:title>
      </cc:Work>
    </rdf:RDF>
  </metadata>
  <defs
     id="defs958" />
  <sodipodi:namedview
     inkscape:current-layer="fd86286a-adcb-4d81-b7ed-f4cd333bf213"
     inkscape:window-maximized="1"
     inkscape:window-y="23"
     inkscape:window-x="0"
     inkscape:cy="243.1744"
     inkscape:cx="484.38932"
     inkscape:zoom="0.4366604"
     showborder="false"
     showgrid="false"
     id="namedview956"
     inkscape:window-height="652"
     inkscape:window-width="1366"
     inkscape:pageshadow="2"
     inkscape:pageopacity="0"
     guidetolerance="10"
     gridtolerance="10"
     objecttolerance="10"
     borderopacity="1"
     bordercolor="#666666"
     pagecolor="#ffffff" />
  <title
     id="title833">quiz</title>
  <rect
     id="rect835"
     fill="#3f3d56"
     height="2.78529"
     width="785.4519"
     y="494.17017"
     x="45.029228" />
  <rect
     y="0"
     x="0"
     id="rect837"
     fill="#3f3d56"
     height="437.90359"
     width="899.8678" />
  <path
     id="path839"
     opacity="0.1"
     d="M 899.86783,33.68489 V 21.65457 H 872.19809 V 0 H 860.16778 V 21.65457 H 39.70006 V 0 H 27.66974 V 21.65457 H 0 V 33.68489 H 27.66974 V 404.2187 H 0 v 12.0303 h 27.66974 v 21.65457 H 39.70006 V 416.249 h 820.46772 v 21.65457 h 12.03031 V 416.249 h 27.66974 V 404.2187 H 872.19809 V 33.68489 Z m -39.7,370.53381 H 39.70006 V 33.68489 h 820.46772 z" />
  <rect
     style="fill:#e8e8e8;fill-opacity:1"
     id="rect841"
     fill="#d0cde1"
     height="134.9673"
     width="141.88698"
     y="57.745529"
     x="397.73892" />
  <rect
     style="fill:#441ab9;fill-opacity:1"
     id="rect843"
     fill="#6c63ff"
     height="83.842308"
     width="109.63994"
     y="73.869049"
     x="413.86243" />
  <rect
     id="rect845"
     fill="#f2f2f2"
     height="38.437"
     width="38.437"
     y="87.647552"
     x="437.98849" />
  <path
     style="fill:#f2f2f2;fill-opacity:1"
     id="path847"
     fill="#3f3d56"
     d="m 452.70273,97.2593 v 46.67356 h 46.67358 V 97.2593 Z m 44.64908,44.649 H 454.7272 V 99.28377 h 42.62461 z" />
  <rect
     style="fill:#282828;fill-opacity:1"
     id="rect849"
     fill="#f2f2f2"
     height="3.1387701"
     width="59.636711"
     y="166.03325"
     x="413.75385" />
  <circle
     id="circle851"
     fill="#3f3d56"
     r="6.2775502"
     cy="65.592461"
     cx="468.6824" />
  <rect
     style="fill:#e8e8e8;fill-opacity:1"
     id="rect853"
     fill="#d0cde1"
     height="134.9673"
     width="141.88698"
     y="252.40895"
     x="451.25153" />
  <rect
     style="fill:#441ab9;fill-opacity:1"
     id="rect855"
     fill="#6c63ff"
     height="83.842308"
     width="109.63994"
     y="268.53247"
     x="467.37506" />
  <rect
     style="fill:#282828;fill-opacity:1"
     id="rect857"
     fill="#f2f2f2"
     height="3.1387701"
     width="59.636711"
     y="362.26605"
     x="467.26648" />
  <rect
     style="fill:#282828;fill-opacity:1"
     id="rect859"
     fill="#f2f2f2"
     height="3.1387701"
     width="59.636711"
     y="371.68237"
     x="467.26648" />
  <circle
     style="fill:#118c21;fill-opacity:1"
     id="circle861"
     fill="#3f3d56"
     r="12.5551"
     cy="310.47629"
     cx="486.88382" />
  <circle
     r="12.5551"
     id="circle863"
     fill="#f2f2f2"
     cy="310.47629"
     cx="522.19501" />
  <circle
     id="circle865"
     fill="#ff6584"
     r="12.5551"
     cy="310.47629"
     cx="557.50623" />
  <circle
     id="circle867"
     fill="#3f3d56"
     r="6.2775502"
     cy="260.25589"
     cx="522.19501" />
  <rect
     style="fill:#e8e8e8;fill-opacity:1"
     id="rect869"
     fill="#d0cde1"
     height="134.9673"
     width="141.88698"
     y="210.23848"
     x="234.10182" />
  <rect
     style="fill:#441ab9;fill-opacity:1"
     id="rect871"
     fill="#6c63ff"
     height="83.842308"
     width="109.63994"
     y="226.362"
     x="250.22534" />
  <circle
     id="circle873"
     fill="#f2f2f2"
     r="26.61894"
     cy="278.08167"
     cx="297.7449" />
  <path
     style="fill:#f2f2f2;fill-opacity:1"
     id="path875"
     fill="#3f3d56"
     d="m 305.59074,298.61352 a 33.37392,33.37392 0 1 1 33.37392,-33.37392 33.41168,33.41168 0 0 1 -33.37392,33.37392 z m 0,-65.53424 a 32.16033,32.16033 0 1 0 32.16033,32.16032 32.19651,32.19651 0 0 0 -32.16033,-32.16032 z" />
  <rect
     style="fill:#282828;fill-opacity:1"
     id="rect877"
     fill="#f2f2f2"
     height="3.1387701"
     width="59.636711"
     y="327.9425"
     x="250.11676" />
  <rect
     style="fill:#282828;fill-opacity:1"
     id="rect879"
     fill="#f2f2f2"
     height="3.1387701"
     width="83.177521"
     y="318.52621"
     x="250.11676" />
  <circle
     id="circle881"
     fill="#3f3d56"
     r="6.2775502"
     cy="218.08542"
     cx="305.04532" />
  <rect
     style="fill:#e8e8e8;fill-opacity:1"
     id="rect883"
     fill="#d0cde1"
     height="134.9673"
     width="141.88698"
     y="55.339458"
     x="78.153252" />
  <rect
     style="fill:#441ab9;fill-opacity:1"
     id="rect885"
     fill="#6c63ff"
     height="83.842308"
     width="109.63994"
     y="71.46299"
     x="94.276772" />
  <rect
     style="fill:#f2f2f2;fill-opacity:1"
     id="rect887"
     fill="#3f3d56"
     height="6.9896698"
     width="23.58659"
     y="137.09908"
     x="137.30344" />
  <rect
     style="fill:#f2f2f2;fill-opacity:1"
     id="rect889"
     fill="#3f3d56"
     height="2.9955699"
     width="80.616837"
     y="82.67952"
     x="108.78832" />
  <rect
     style="fill:#f2f2f2;fill-opacity:1"
     id="rect891"
     fill="#3f3d56"
     height="2.9955699"
     width="80.616837"
     y="92.165497"
     x="108.78832" />
  <rect
     style="fill:#f2f2f2;fill-opacity:1"
     id="rect893"
     fill="#3f3d56"
     height="2.9955699"
     width="80.616837"
     y="101.65148"
     x="108.78832" />
  <rect
     style="fill:#f2f2f2;fill-opacity:1"
     id="rect895"
     fill="#3f3d56"
     height="2.9955699"
     width="80.616837"
     y="111.13746"
     x="108.78832" />
  <rect
     style="fill:#f2f2f2;fill-opacity:1"
     id="rect897"
     fill="#3f3d56"
     height="2.9955699"
     width="80.616837"
     y="120.62344"
     x="108.78832" />
  <rect
     style="fill:#282828;fill-opacity:1"
     id="rect899"
     fill="#f2f2f2"
     height="3.1387701"
     width="59.636711"
     y="163.62718"
     x="94.168182" />
  <rect
     style="fill:#282828;fill-opacity:1"
     id="rect901"
     fill="#f2f2f2"
     height="3.1387701"
     width="83.177521"
     y="171.47412"
     x="94.168182" />
  <circle
     id="circle903"
     fill="#3f3d56"
     r="6.2775502"
     cy="63.186401"
     cx="149.09674" />
  <path
     id="path905"
     fill="#d0cde1"
     d="m 654.79067,143.5099 102.75768,7.55 29.05976,2.1351 -1.80455,-1.80455 5.45746,78.94095 2.72873,39.47048 c 0.11025,1.59476 0.22337,3.18935 0.33075,4.7843 0.0893,1.326 0.4544,2.60355 -1.11626,2.9308 -3.1231,0.65069 -6.375,0.92164 -9.53893,1.32092 q -9.64688,1.21743 -19.33725,2.04886 a 490.06,490.06 0 0 1 -77.70424,0.48715 q -9.69743,-0.71021 -19.36133,-1.80753 c -2.396,-0.27191 -5.3699,-0.374 -6.24485,-3.06059 -0.90221,-2.77026 -1.05707,-5.91942 -1.46487,-8.79368 q -2.72528,-19.20842 -3.71435,-38.61375 a 443.03351,443.03351 0 0 1 2.73037,-77.25819 q 0.581,-4.70689 1.26884,-9.39932 c 0.33136,-2.27193 -3.14569,-3.25277 -3.48017,-0.95945 a 446.73739,446.73739 0 0 0 -4.45859,80.001 q 0.69924,20.07207 3.21363,40.02566 0.63617,5.03973 1.38148,10.065 c 0.39608,2.66571 0.49363,5.80938 2.08021,8.10011 1.5307,2.21007 4.1012,2.91906 6.62733,3.25582 3.21513,0.42861 6.45157,0.73575 9.67944,1.0507 a 489.84415,489.84415 0 0 0 80.6337,1.19277 q 10.14215,-0.6871 20.24992,-1.79435 4.9792,-0.54577 9.94649,-1.19372 2.43128,-0.31716 4.85969,-0.656 a 22.37512,22.37512 0 0 0 4.46666,-0.77769 c 3.0408,-1.0963 3.03979,-4.02934 2.85083,-6.76264 l -0.70285,-10.16663 -1.40571,-20.33328 -5.66418,-81.93114 -0.70286,-10.16664 a 1.85761,1.85761 0 0 0 -1.80454,-1.80454 l -102.75768,-7.55 -29.05976,-2.13512 c -2.31712,-0.17025 -2.3063,3.43964 0,3.60909 z" />
  <path
     id="path907"
     fill="#d0cde1"
     d="m 698.82684,186.11775 c 0.51883,-1.37759 -0.78584,1.58957 -0.13064,0.27681 0.17412,-0.34888 0.33685,-0.70156 0.52146,-1.04538 a 19.938,19.938 0 0 1 1.21978,-1.98189 c 0.4429,-0.63424 1.11587,-0.87887 -0.19388,0.22431 a 9.44307,9.44307 0 0 0 0.76,-0.88085 22.19276,22.19276 0 0 1 1.95193,-1.89242 c 0.49473,-0.42459 1.43128,-0.78593 -0.24435,0.15444 0.33133,-0.186 0.63882,-0.46442 0.95535,-0.67724 q 0.9737,-0.65463 2.00847,-1.21164 0.5171,-0.27856 1.04726,-0.53188 c 0.60014,-0.2868 1.59956,-0.38544 -0.28989,0.098 0.81106,-0.20751 1.59594,-0.59126 2.40714,-0.82152 q 1.034,-0.29351 2.09089,-0.49405 c 0.62942,-0.11861 1.77166,-0.029 -0.37771,0.0204 0.38435,-0.009 0.77774,-0.083 1.16237,-0.109 a 21.941,21.941 0 0 1 2.3288,-0.0349 c 0.38807,0.015 0.77324,0.0535 1.16057,0.0766 1.28677,0.0768 -1.94745,-0.35742 -4.2e-4,0.0135 a 19.65246,19.65246 0 0 1 2.25936,0.56993 8.60024,8.60024 0 0 0 1.10534,0.38783 l -0.99838,-0.43015 q 0.36739,0.1596 0.728,0.334 a 20.08614,20.08614 0 0 1 2.08,1.16346 c 0.33359,0.21337 0.65269,0.445 0.97986,0.6675 1.0273,0.6987 -1.37676,-1.17594 0.0801,0.10115 q 0.74146,0.65 1.42243,1.36522 0.40885,0.42883 0.79486,0.87871 c 0.43314,0.50441 0.76438,1.42567 -0.139,-0.22557 0.82691,1.51148 1.86035,2.88245 2.63913,4.44069 0.66429,1.32914 -0.60539,-1.65088 -0.10088,-0.25161 0.136,0.37728 0.28226,0.74985 0.41061,1.13 q 0.38509,1.14075 0.66457,2.31361 c 0.18657,0.78308 0.27792,1.58253 0.44991,2.36621 -0.47335,-2.15689 -0.12719,-0.9093 -0.0806,-0.32327 q 0.0636,0.7997 0.0767,1.60234 0.016,1.00139 -0.0486,2.00226 c -0.0255,0.39066 -0.113,0.806 -0.10777,1.196 -0.0271,-2.025 0.14657,-1.01649 0.0206,-0.3363 a 22.68171,22.68171 0 0 1 -0.56036,2.33448 q -0.1715,0.5768 -0.3741,1.14342 -0.18006,0.50261 -0.37956,0.9978 0.58181,-1.3554 0.0928,-0.25763 c -1.99328,3.98659 -4.47673,7.70371 -6.43726,11.70413 a 53.40246,53.40246 0 0 0 -4.67971,32.16207 7.22166,7.22166 0 0 0 3.31719,4.31382 7.37059,7.37059 0 0 0 5.562,0.72765 c 4.06859,-1.31665 5.66815,-4.86891 5.04146,-8.87923 -0.22076,-1.41272 0.11579,1.25968 -0.0286,-0.1628 -0.0619,-0.61005 -0.12384,-1.219 -0.167,-1.83078 q -0.12926,-1.83419 -0.10533,-3.6744 0.0202,-1.57609 0.15156,-3.14776 a 9.3298,9.3298 0 0 1 0.18971,-1.82894 c -10e-4,0.004 -0.23251,1.45125 -0.0753,0.61815 0.0649,-0.34379 0.11114,-0.69191 0.1727,-1.03649 a 44.59427,44.59427 0 0 1 1.79247,-6.85428 c 0.17323,-0.49616 0.36265,-0.98575 0.54522,-1.47842 0.48191,-1.30049 -0.50125,1.044 0.0812,-0.21473 0.51956,-1.12281 1.05732,-2.2309 1.649,-3.31783 2.48482,-4.56487 5.29537,-8.842 7.1056,-13.752 a 28.85557,28.85557 0 0 0 1.60166,-12.0305 c -0.66969,-8.41857 -4.23915,-16.96036 -10.89178,-22.411 a 28.40744,28.40744 0 0 0 -25.0969,-5.71855 30.00658,30.00658 0 0 0 -21.04083,18.6207 c -1.33341,3.54049 1.47926,8.06787 5.04147,8.87923 4.10613,0.93524 7.45156,-1.25067 8.87923,-5.04147 z" />
  <path
     id="path909"
     fill="#d0cde1"
     d="m 724.0452,272.11633 a 6,6 0 1 0 -6,-6 6.06754,6.06754 0 0 0 6,6 z" />
  <rect
     style="opacity:0.836013;fill:#441ab9;fill-opacity:1"
     id="rect911"
     fill="#6c63ff"
     height="33.684891"
     width="33.684891"
     y="481.98978"
     x="39.789501" />
  <path
     id="path913"
     fill="#3f3d56"
     d="M 93.92594,496.42616 H 53.02286 V 455.52308 H 93.92594 Z M 54.80125,494.64777 H 92.14754 V 457.30148 H 54.80125 Z" />
  <path
     id="path915"
     fill="#ffb8b8"
     d="m 823.47531,300.15645 -4.81212,14.43638 c 0,0 -30.0758,34.88792 -8.42123,39.70005 21.65457,4.81213 24.06064,-37.294 24.06064,-37.294 l 6.01516,-12.03032 z" />
  <path
     style="fill:#781371;fill-opacity:1"
     id="path917"
     fill="#575a89"
     d="m 857.1602,125.71683 c 0,0 -7.2182,-1.203 -9.62426,27.66973 -2.40606,28.87273 -3.60909,79.4001 -3.60909,79.4001 l -27.66974,70.97888 34.88793,10.82729 16.84244,-80.60314 z" />
  <polygon
     id="polygon919"
     fill="#ffb8b8"
     points="870.394,578.057 869.191,555.199 841.521,555.199 837.912,578.057 " />
  <polygon
     id="polygon921"
     fill="#ffb8b8"
     points="965.433,614.148 965.433,578.057 946.185,580.463 943.778,611.742 " />
  <path
     id="path923"
     fill="#2f2e41"
     d="m 854.75413,256.8473 -27.66973,158.8002 7.21819,144.36382 h 37.294 V 428.88085 l 36.09095,-67.36978 28.87277,84.21223 7.2182,140.75473 40.9031,-7.2182 -9.6243,-137.14563 c 0,0 -7.2182,-182.86084 -14.4364,-185.2669 -7.2182,-2.40606 -105.86678,0 -105.86678,0 z" />
  <path
     id="path925"
     fill="#2f2e41"
     d="m 845.12988,570.83861 c 0,0 0,-12.03032 -9.62426,-4.81213 -9.62426,7.21819 -21.65457,20.45152 -21.65457,20.45152 0,0 -45.71521,25.26366 -13.23335,28.87276 32.48186,3.6091 52.9334,-16.84245 52.9334,-16.84245 l 3.6091,3.6091 c 0,0 19.2485,-3.6091 19.2485,-8.42122 a 92.88949,92.88949 0 0 0 -1.203,-12.03032 c 0,0 -2.5303,-20.40612 -5.47576,-16.21822 -2.94546,4.1879 -19.78794,12.60915 -24.60006,5.39096 z" />
  <path
     id="path927"
     fill="#2f2e41"
     d="m 966.63611,604.5235 c 0,0 -21.6546,-10.82728 -26.4667,-1.203 -4.8121,9.62428 -8.4212,28.87277 -8.4212,28.87277 0,0 -15.63945,30.07573 12.0303,27.66973 27.6697,-2.406 26.4667,-18.04548 26.4667,-21.65457 0,-3.60909 -1.203,-12.03032 0,-15.63942 1.203,-3.6091 -3.6091,-18.04551 -3.6091,-18.04551 z" />
  <circle
     id="circle929"
     fill="#ffb8b8"
     r="33.684891"
     cy="44.51218"
     cx="919.11633" />
  <polygon
     id="polygon931"
     fill="#ffb8b8"
     points="938.966,100.453 938.966,60.753 896.86,60.753 895.657,104.062 " />
  <path
     id="path933"
     fill="#d0cde1"
     d="m 941.37241,78.79859 c 0,0 -20.4515,13.23335 -26.46669,15.63941 -6.01516,2.40606 -19.24851,-9.62425 -19.24851,-9.62425 0,0 -3.60909,2.40606 -3.60909,4.81212 0,2.40606 -2.40606,12.03032 -2.40606,12.03032 l -28.87275,95.03952 2.40606,67.36978 c 0,0 87.82134,8.42122 97.44554,-2.40606 9.6243,-10.82728 -4.8121,-166.0184 -4.8121,-166.0184 z" />
  <path
     id="path935"
     opacity="0.1"
     d="m 935.35731,104.06225 c 0,0 -32.48186,12.03032 -43.30915,1.203 -4e-5,4e-5 15.63937,3.60913 43.30915,-1.203 z" />
  <path
     style="fill:#781371;fill-opacity:1"
     id="path937"
     fill="#575a89"
     d="m 1020.7725,365.12017 c -13.2333,8.42122 -56.54249,19.24851 -56.54249,19.24851 0,0 -4.728,-101.83661 -21.6545,-117.89713 -16.8305,-15.98826 -44.30781,-131.25081 -19.5975,-151.29329 a 3.70257,3.70257 0 0 1 0.3489,-0.28872 l 15.6395,-36.091 c 0,0 2.406,-3.6091 7.2181,1.203 a 131.36557,131.36557 0 0 1 10.8273,13.23335 l 0.6858,0.27667 32.9991,12.95668 -13.2333,58.94856 c 0,0 56.54249,191.28214 43.30909,199.70337 z" />
  <path
     style="opacity:0.22508;fill:#000000;fill-opacity:1"
     id="path939"
     opacity="0.1"
     d="m 957.69761,93.51164 -9.107,33.40822 -25.6126,-11.7416 a 3.70257,3.70257 0 0 1 0.349,-0.28872 l 15.6394,-36.091 c 0,0 2.406,-3.6091 7.2182,1.203 a 131.36557,131.36557 0 0 1 10.8273,13.23335 z" />
  <path
     style="fill:#781371;fill-opacity:1"
     id="path941"
     fill="#575a89"
     d="m 895.0557,84.21223 -3.6091,40.90308 -0.19238,1.86469 -27.47735,261.59929 c 0,0 -24.06064,-8.42123 -32.48186,-18.04548 -8.42122,-9.62425 19.24851,-116.69409 19.24851,-116.69409 l 2.40606,-134.73957 c 0,0 21.34178,-15.02585 30.06376,-23.27871 2.04509,-1.92482 3.39263,-3.4767 3.62114,-4.391 1.20303,-4.81215 8.42122,-7.21821 8.42122,-7.21821 z" />
  <path
     style="opacity:0.22508;fill:#000000;fill-opacity:1"
     id="path943"
     opacity="0.1"
     d="m 895.0557,84.21223 -3.6091,40.90308 -0.19238,1.86469 -17.25158,-2.4662 9.0107,-28.69236 c 2.04509,-1.92482 3.39263,-3.4767 3.62114,-4.391 1.20303,-4.81215 8.42122,-7.21821 8.42122,-7.21821 z" />
  <path
     id="path945"
     fill="#ffb8b8"
     d="m 959.41791,286.9231 -13.2334,12.03031 c 0,0 6.0152,25.26367 13.2334,26.4667 0,0 4.8121,-7.21819 6.0151,-13.23335 1.2031,-6.01516 12.0304,-12.03031 12.0304,-12.03031 z" />
  <path
     style="fill:#781371;fill-opacity:1"
     id="path947"
     fill="#575a89"
     d="m 975.05731,104.06225 15.6394,2.40607 c 0,0 51.73039,87.82132 45.71519,119.10015 -6.0151,31.27883 -54.13639,85.41526 -54.13639,85.41526 l -30.0758,-24.06063 44.5122,-60.1516 -22.8576,-72.18191 z" />
  <path
     id="path949"
     fill="#2f2e41"
     d="m 885.35539,48.29567 c 0,0 0,-29.70655 7.21893,-36.458 h 8.66271 c 0,0 10.1065,-14.85328 23.10058,-9.45209 12.9941,5.40119 34.6508,14.85328 33.2071,29.70655 -1.4438,14.85327 -5.9465,24.45041 -5.9465,24.45041 0,0 -2.4061,0 -7.7691,-8.07466 -7.1665,-10.78991 9.3846,-7.42664 -12.2722,-11.47753 -21.6568,-4.05089 -34.65087,-9.45209 -37.53844,-4.0509 -2.88757,5.40119 -8.66308,15.35622 -8.66308,15.35622 z" />
  <path
     id="path951"
     fill="#2f2e41"
     d="m 901.09431,13.85359 c 0,0 1.15374,-8.68188 5.90311,-10.55126 z" />
  <path
     id="path953"
     fill="#2f2e41"
     d="m 901.07354,15.63951 c 0,0 -2.40982,-8.42015 1.19767,-12.03086 z" />
  <rect
     x="413.68149"
     y="174.8136"
     width="83.177521"
     height="3.1387701"
     fill="#f2f2f2"
     id="rect962"
     style="fill:#282828;fill-opacity:1" />
</svg>
